HIERARCHY
ROOT Hips
{
	OFFSET	0.00	0.00	0.00
	CHANNELS 6 Xposition Yposition Zposition Zrotation Xrotation Yrotation
	JOINT LeftUpLeg
	{
		OFFSET	 0.126116	-0.014019	-0.065224
		CHANNELS 3 Zrotation Xrotation Yrotation
		JOINT LeftLeg
		{
			OFFSET	 0.000000	 0.000000	 0.569914
			CHANNELS 3 Zrotation Xrotation Yrotation
			JOINT LeftFoot
			{
				OFFSET	 0.000000	 0.000000	 0.544423
				CHANNELS 3 Zrotation Xrotation Yrotation
				JOINT LeftToeBase
				{
					OFFSET	 0.000000	 0.000000	 0.207117
					CHANNELS 3 Zrotation Xrotation Yrotation
					End Site
					{
						OFFSET	 0.000000	 0.000000	 0.207117
					}
				}
			}
		}
	}
	JOINT RightUpLeg
	{
		OFFSET	-0.124023	-0.008373	-0.065224
		CHANNELS 3 Zrotation Xrotation Yrotation
		JOINT RightLeg
		{
			OFFSET	 0.000000	 0.000000	 0.570047
			CHANNELS 3 Zrotation Xrotation Yrotation
			JOINT RightFoot
			{
				OFFSET	 0.000000	 0.000000	 0.544354
				CHANNELS 3 Zrotation Xrotation Yrotation
				JOINT RightToeBase
				{
					OFFSET	 0.000000	 0.000000	 0.207540
					CHANNELS 3 Zrotation Xrotation Yrotation
					End Site
					{
						OFFSET	 0.000000	 0.000000	 0.207540
					}
				}
			}
		}
	}
	JOINT Spine
	{
		OFFSET	 0.000184	-0.007763	 0.117403
		CHANNELS 3 Zrotation Xrotation Yrotation
		JOINT Spine1
		{
			OFFSET	 0.000000	 0.000000	 0.137269
			CHANNELS 3 Zrotation Xrotation Yrotation
			JOINT Spine2
			{
				OFFSET	 0.000000	 0.000000	 0.156879
				CHANNELS 3 Zrotation Xrotation Yrotation
				JOINT LeftShoulder
				{
					OFFSET	 0.080501	-0.002496	 0.160144
					CHANNELS 3 Zrotation Xrotation Yrotation
					JOINT LeftArm
					{
						OFFSET	 0.000000	 0.000000	 0.164363
						CHANNELS 3 Zrotation Xrotation Yrotation
						JOINT LeftForeArm
						{
							OFFSET	 0.000000	 0.000000	 0.364576
							CHANNELS 3 Zrotation Xrotation Yrotation
							JOINT LeftHand
							{
								OFFSET	 0.000000	 0.000000	 0.360812
								CHANNELS 3 Zrotation Xrotation Yrotation
								JOINT LeftHandIndex1
								{
									OFFSET	 0.000000	 0.000000	 0.086006
									CHANNELS 3 Zrotation Xrotation Yrotation
									JOINT LeftHandIndex2
									{
										OFFSET	 0.000000	 0.000000	 0.047236
										CHANNELS 3 Zrotation Xrotation Yrotation
										JOINT LeftHandIndex3
										{
											OFFSET	-0.004284	-0.000551	 0.038166
											CHANNELS 3 Zrotation Xrotation Yrotation
											End Site
											{
												OFFSET	-0.004284	-0.000551	 0.038166
											}
										}
									}
								}
							}
						}
					}
				}
				JOINT Neck
				{
					OFFSET	 0.000000	 0.000000	 0.176489
					CHANNELS 3 Zrotation Xrotation Yrotation
					JOINT Head
					{
						OFFSET	 0.000000	-0.001747	 0.077940
						CHANNELS 3 Zrotation Xrotation Yrotation
						End Site
						{
							OFFSET	 0.000000	-0.001747	 0.077940
						}
					}
				}
				JOINT RightShoulder
				{
					OFFSET	-0.080363	 0.000306	 0.159706
					CHANNELS 3 Zrotation Xrotation Yrotation
					JOINT RightArm
					{
						OFFSET	 0.000000	 0.000000	 0.164196
						CHANNELS 3 Zrotation Xrotation Yrotation
						JOINT RightForeArm
						{
							OFFSET	 0.000000	 0.000000	 0.365611
							CHANNELS 3 Zrotation Xrotation Yrotation
							JOINT RightHand
							{
								OFFSET	 0.000000	 0.000000	 0.360648
								CHANNELS 3 Zrotation Xrotation Yrotation
								JOINT RightHandIndex1
								{
									OFFSET	 0.000000	 0.000000	 0.069977
									CHANNELS 3 Zrotation Xrotation Yrotation
									JOINT RightHandIndex2
									{
										OFFSET	 0.000000	 0.000000	 0.052305
										CHANNELS 3 Zrotation Xrotation Yrotation
										JOINT RightHandIndex3
										{
											OFFSET	 0.009002	-0.000782	 0.042196
											CHANNELS 3 Zrotation Xrotation Yrotation
											End Site
											{
												OFFSET	 0.009002	-0.000782	 0.042196
											}
										}
									}
								}
							}
						}
					}
				}
			}
		}
	}
}
MOTION
Frames:    13
Frame Time: 0.03333334
-0.044819	 3.892528	-0.541856	-25.262020	-2.387765	-1.096076	 7.224277	 19.779220	-176.738100	-3.572780	-11.633840	 1.461895	 3.412742	 84.218730	-0.115110	-2.310645	 38.847920	-0.245171	 4.707015	-35.521380	-178.071600	 1.939627	-45.211510	 5.769185	 103.974200	 89.874890	-97.950370	 2.373231	 30.683470	 0.050446	-1.914956	 4.217140	 2.339406	 1.023532	-0.545653	 0.893522	 1.446392	-2.892675	-0.406906	-91.776180	 78.527420	-180.000000	 35.556810	 60.646230	-53.490730	-8.945167	-4.956671	-35.485330	 3.900231	-2.095810	-5.368768	-3.812334	 37.924440	-2.927599	-2.450526	 36.184240	 0.754587	-1.378229	 35.397820	-2.634230	 1.211934	 2.145156	-4.944530	 1.609840	-8.789922	 3.448596	 89.782120	 78.203870	 180.000000	-38.246720	 71.832600	 35.785610	 0.032208	-6.854553	 22.383340	-13.439040	-3.248051	 9.564298	 6.437017	 35.671460	-0.771858	 2.830251	 35.756010	-7.813440	-2.350882	 35.473990	 5.254307
-0.076388	 3.830651	-0.544244	-24.638010	-1.907082	-1.308446	 7.468643	 22.596560	-177.203800	-3.376242	-11.623010	 1.546206	 4.291916	 84.348440	-0.608964	-2.266902	 42.517780	-0.345312	 5.208895	-36.070950	-177.473200	-0.193858	-38.664840	 3.792192	 151.780700	 89.435600	-146.558500	 2.361976	 32.549110	 0.092789	-2.119038	 3.890039	 2.107059	 1.048915	-0.724953	 0.788003	 1.557770	-3.047881	-0.447039	-91.776180	 78.527400	 180.000000	 36.468150	 60.617340	-54.829940	-9.080705	-4.980523	-36.708740	 3.744086	-2.115498	-5.365328	-3.812334	 37.924440	-2.927599	-2.450526	 36.184240	 0.754587	-1.378229	 35.397820	-2.634230	 1.229210	 2.127833	-5.001884	 1.695171	-8.998279	 4.126825	 89.782120	 78.203870	 180.000000	-36.611010	 72.798590	 33.885700	 0.312653	-6.717783	 21.038570	-14.005920	-3.267530	 9.550466	 6.437017	 35.671460	-0.771858	 2.830251	 35.756010	-7.813440	-2.350882	 35.473990	 5.254307
-0.115229	 3.757827	-0.546987	-23.897480	-2.028444	-1.321626	 7.979558	 25.999110	-178.586300	-2.454072	-11.595790	 1.740334	 5.483204	 82.489430	-0.757243	-2.203284	 46.634720	-0.470334	 4.867000	-35.432460	-177.538500	 0.607801	-38.191990	 4.084888	 130.110900	 89.666620	-124.428200	 2.368135	 31.565570	 0.070319	-2.391217	 3.735115	 1.860500	 1.068623	-0.815250	 0.525938	 1.792994	-2.996383	-0.543030	-91.776180	 78.527400	 180.000000	 38.286610	 61.501700	-55.908260	-9.140832	-4.952335	-36.215530	 3.774599	-2.119062	-5.364582	-3.812334	 37.924440	-2.927599	-2.450526	 36.184240	 0.754587	-1.378229	 35.397820	-2.634230	 1.326648	 2.152874	-5.071294	 1.839222	-9.075553	 4.769555	 89.782100	 78.203870	-180.000000	-35.256070	 73.510020	 32.395760	 0.232627	-6.547325	 19.500990	-14.712350	-3.292624	 9.531233	 6.437017	 35.671460	-0.771858	 2.830251	 35.756010	-7.813440	-2.350882	 35.473990	 5.254307
-0.157981	 3.681964	-0.549602	-23.071760	-2.204384	-1.220683	 8.713740	 29.287940	 179.305800	-1.298482	-11.566050	 1.930501	 5.873021	 77.751650	 0.102195	-2.128218	 50.394200	-0.599972	 4.445038	-33.471850	-178.239600	 2.633145	-41.019230	 5.606895	 10.226290	 89.000250	-3.410623	 2.380711	 29.241410	 0.018555	-2.756558	 3.414041	 1.747624	 1.039518	-0.871760	 0.205583	 2.134808	-2.686452	-0.728961	-91.776180	 78.527380	-180.000000	 40.525020	 62.972400	-56.053640	-9.006234	-4.820821	-34.252560	 3.874226	-2.102742	-5.367496	-3.812334	 37.924440	-2.927599	-2.450526	 36.184240	 0.754587	-1.378229	 35.397820	-2.634230	 1.523158	 2.652293	-5.126650	 2.029354	-9.258266	 5.198186	 89.782120	 78.203930	 180.000000	-33.562920	 73.970420	 30.329700	 0.083928	-6.381891	 18.287150	-15.264610	-3.311957	 9.514567	 6.437017	 35.671460	-0.771858	 2.830251	 35.756010	-7.813440	-2.350882	 35.473990	 5.254307
-0.207559	 3.593902	-0.548713	-21.648870	-2.522156	-1.032357	 9.691722	 32.607720	 176.745000	-1.428955	-11.549760	 1.835664	 4.852952	 66.924600	 1.479881	-2.116435	 50.908820	-0.619119	 2.742464	-30.880620	-179.176100	 4.748760	-44.858260	 6.684564	 3.598760	 85.427020	 3.259366	 2.391667	 26.644670	-0.037305	-3.231794	 3.005723	 1.295197	 0.952539	-0.858935	-0.066149	 2.395636	-2.460376	-0.929207	-91.776180	 78.527400	-180.000000	 43.303450	 65.247650	-55.841410	-8.407263	-4.816625	-30.085140	 4.692877	-2.109097	-5.365172	-3.812334	 37.924440	-2.927599	-2.450526	 36.184240	 0.754587	-1.378229	 35.397820	-2.634230	 1.671587	 3.058907	-4.962115	 2.173139	-9.075732	 5.202820	 89.782090	 78.203890	-180.000000	-31.986090	 74.182520	 28.325880	 0.190077	-6.189112	 17.559040	-15.352480	-3.325862	 9.505213	 6.437017	 35.671460	-0.771858	 2.830251	 35.756010	-7.813440	-2.350882	 35.473990	 5.254307
-0.251119	 3.529781	-0.540251	-20.471490	-2.765632	-1.465566	 7.501202	 19.965730	 175.549400	-1.198654	-37.687730	 1.496603	 2.565310	 61.885240	 0.448651	-2.227085	 45.221570	-0.425668	 1.590981	-28.734920	-179.437000	 5.553888	-47.879040	 7.004847	 3.468660	 84.071330	 2.867317	 2.403605	 22.175520	-0.129563	-3.283136	 2.575374	 1.853147	 1.010485	-0.794714	-0.096941	 2.468428	-2.032532	-0.975951	-91.776180	 78.527380	-180.000000	 44.514090	 67.618980	-55.035910	-8.109267	-4.745716	-25.040670	 5.911954	-2.131196	-5.357502	-3.812334	 37.924440	-2.927599	-2.450526	 36.184240	 0.754587	-1.378229	 35.397820	-2.634230	 1.654335	 2.950452	-4.753468	 2.182593	-8.554530	 4.814250	 89.782120	 78.203870	 180.000000	-32.870150	 73.769840	 29.800370	-0.106472	-6.043581	 17.049880	-15.387020	-3.334537	 9.499108	 6.437017	 35.671460	-0.771858	 2.830251	 35.756010	-7.813440	-2.350882	 35.473990	 5.254307
-0.294443	 3.463630	-0.532100	-19.080390	-3.202485	 1.110728	 7.412436	 10.387810	 170.812600	-3.187861	-56.523670	-1.655473	-0.145121	 54.638390	 1.151443	-2.360111	 33.067510	-0.103234	 0.465721	-23.246170	 177.067600	 6.838339	-47.059710	 6.989416	 2.543375	 85.215330	 4.063046	 2.407670	 17.791380	-0.216607	-3.866906	 3.345091	-0.959645	 1.077685	-1.083503	-0.652264	 2.964249	-2.793419	-0.960971	-91.776180	 78.527400	 180.000000	 43.043570	 70.159980	-51.879550	-8.882445	-4.373467	-20.476150	 6.694811	-2.201410	-5.334868	-3.812334	 37.924440	-2.927599	-2.450526	 36.184240	 0.754587	-1.378229	 35.397820	-2.634230	 1.444394	 2.907116	-4.593957	 1.984644	-8.311290	 4.074714	 89.782120	 78.203930	 180.000000	-35.011780	 72.668410	 33.305310	-0.794479	-5.958413	 16.762680	-15.398140	-3.335276	 9.498433	 6.437017	 35.671460	-0.771858	 2.830251	 35.756010	-7.813440	-2.350882	 35.473990	 5.254307
-0.331639	 3.404424	-0.525515	-17.627820	-3.145536	 2.646199	 5.037197	 0.746554	 169.598400	-5.974441	-69.627390	-6.788776	-1.125564	 59.706300	 0.411986	-2.347255	 34.829910	-0.144794	 0.228239	-18.794160	 174.833200	 7.557220	-45.322310	 6.872289	 0.619404	 87.361440	 6.432825	 2.407679	 17.723610	-0.217935	-4.168927	 3.271747	-2.490041	 1.070854	-1.275906	-0.957119	 2.734573	-3.487588	-0.815788	-91.776180	 78.527400	-180.000000	 40.852820	 71.711690	-48.846250	-10.185730	-3.837476	-17.429150	 6.541949	-2.270011	-5.315568	-3.812334	 37.924440	-2.927599	-2.450526	 36.184240	 0.754587	-1.378229	 35.397820	-2.634230	 1.172293	 2.978751	-4.418736	 1.795217	-8.807020	 3.439229	 89.782120	 78.203870	 180.000000	-37.617740	 71.134840	 38.581340	-1.313557	-5.993960	 16.906200	-15.370770	-3.335634	 9.498070	 6.437017	 35.671460	-0.771858	 2.830251	 35.756010	-7.813440	-2.350882	 35.473990	 5.254307
-0.373892	 3.332453	-0.521286	-17.219640	-3.130588	 3.256460	 1.925904	-9.713683	 170.834500	-6.442439	-76.117390	-9.437163	-1.098600	 69.841090	-0.026167	-2.300447	 39.789700	-0.270002	 0.699921	-14.309670	 173.510200	 7.466227	-44.519860	 6.740065	-160.963500	 89.509020	 168.218700	 2.407351	 18.844170	-0.195949	-3.572069	 3.438927	-3.098526	 1.669018	-1.345313	-0.731176	 2.530498	-3.941957	-0.272970	-91.776180	 78.527380	-180.000000	 37.918320	 72.348730	-43.920310	-10.005780	-3.797572	-16.624330	 6.840948	-2.282564	-5.309497	-3.812334	 37.924440	-2.927599	-2.450526	 36.184240	 0.754587	-1.378229	 35.397820	-2.634230	 0.668046	 2.988269	-4.025371	 1.414747	-8.830679	 2.022288	 89.782120	 78.203870	 180.000000	-38.965550	 68.788680	 43.650440	-1.530240	-6.278651	 18.165950	-15.071370	-3.313867	 9.515021	 6.437017	 35.671460	-0.771858	 2.830251	 35.756010	-7.813440	-2.350882	 35.473990	 5.254307
-0.395993	 3.290207	-0.521947	-17.187230	-2.904711	 4.259043	 0.895491	-14.293460	 171.222200	-8.721186	-75.736480	-12.138870	-1.820531	 76.497270	-0.459915	-2.287828	 40.875540	-0.299352	 0.708685	-11.763220	 172.306000	 7.284792	-44.357590	 6.355340	-173.195100	 88.019000	-179.835100	 2.406198	 20.333530	-0.166475	-3.197341	 3.435872	-4.332040	 2.148382	-1.378402	-0.728230	 2.381992	-4.378270	 0.155686	-91.776180	 78.527400	 180.000000	 37.486350	 72.384470	-41.725670	-9.803847	-3.855469	-17.746500	 6.438695	-2.254750	-5.320856	-3.812334	 37.924440	-2.927599	-2.450526	 36.184240	 0.754587	-1.378229	 35.397820	-2.634230	 0.366085	 3.013822	-3.788623	 1.207451	-8.616656	 1.436446	 89.782090	 78.203890	-180.000000	-39.193030	 67.161550	 45.610360	-1.382019	-6.563615	 19.991500	-14.372850	-3.282808	 9.539134	 6.437017	 35.671460	-0.771858	 2.830251	 35.756010	-7.813440	-2.350882	 35.473990	 5.254307
-0.425287	 3.233045	-0.528339	-17.369910	-2.595806	 5.333869	-0.244332	-20.559960	 171.831300	-12.076230	-71.116230	-15.403850	-3.641520	 83.191880	-1.200265	-2.277625	 41.698670	-0.322137	 0.621038	-9.019565	 171.081100	 6.895006	-44.477460	 5.744299	-174.572100	 85.728090	-178.978300	 2.405144	 21.198360	-0.149216	-2.693220	 3.365854	-5.559150	 2.813096	-1.629315	-0.734388	 2.509018	-4.758078	 0.633512	-91.776180	 78.527400	 180.000000	 35.871490	 72.799940	-37.564560	-10.245720	-3.926159	-20.084310	 5.605646	-2.204237	-5.339600	-3.812334	 37.924440	-2.927599	-2.450526	 36.184240	 0.754587	-1.378229	 35.397820	-2.634230	 0.055581	 3.028070	-3.588521	 1.009212	-8.356067	 1.200285	 89.782090	 78.203830	-180.000000	-38.578630	 64.906450	 46.882520	-0.817290	-7.032743	 23.623850	-13.096040	-3.230402	 9.575078	 6.437017	 35.671460	-0.771858	 2.830251	 35.756010	-7.813440	-2.350882	 35.473990	 5.254307
-0.452656	 3.177162	-0.534766	-17.423120	-2.153897	 6.010263	-0.598224	-24.834510	 172.478000	-11.081430	-62.960300	-13.415570	-4.836942	 86.496140	-1.821434	-2.276654	 41.774140	-0.324261	 0.769733	-5.651878	 170.220000	 6.568750	-43.144190	 5.141462	-174.482300	 83.958980	-179.274400	 2.403607	 22.179470	-0.129485	-2.377024	 3.291478	-6.314879	 3.324631	-2.014331	-0.719057	 2.776276	-5.225552	 0.941436	-91.776180	 78.527400	-180.000000	 33.096800	 73.456090	-32.813450	-11.073820	-3.997501	-22.215810	 5.018587	-2.169710	-5.350613	-3.812334	 37.924440	-2.927599	-2.450526	 36.184240	 0.754587	-1.378229	 35.397820	-2.634230	-0.016087	 3.109559	-3.528444	 0.971653	-8.694818	 1.254584	 89.782120	 78.203870	 180.000000	-37.487260	 62.986270	 47.542320	-0.008499	-7.490261	 27.686260	-11.958670	-3.194902	 9.596194	 6.437017	 35.671460	-0.771858	 2.830251	 35.756010	-7.813440	-2.350882	 35.473990	 5.254307
-0.480838	 3.116359	-0.539782	-16.973450	-1.525118	 6.665187	 0.039932	-27.331730	 173.094500	-8.485023	-51.460890	-8.898935	-3.666943	 86.524470	-3.461785	-2.287135	 40.933090	-0.300929	 1.031633	-1.069866	 169.337800	 6.185478	-39.690920	 4.236706	-176.121200	 83.256070	-177.913800	 2.402285	 22.879720	-0.115303	-2.433813	 2.693427	-7.050895	 3.552617	-2.465419	-0.720137	 2.802430	-5.962109	 1.100457	-91.776180	 78.527400	-180.000000	 30.203760	 73.907790	-28.618470	-11.475740	-4.112422	-23.193400	 4.991023	-2.154994	-5.354059	-3.812334	 37.924440	-2.927599	-2.450526	 36.184240	 0.754587	-1.378229	 35.397820	-2.634230	 0.122745	 3.365788	-3.662342	 1.098763	-9.738491	 1.617942	 89.782120	 78.203870	 180.000000	-36.382830	 61.337570	 48.481060	 0.982791	-7.868550	 31.782100	-10.991230	-3.189725	 9.599805	 6.437017	 35.671460	-0.771858	 2.830251	 35.756010	-7.813440	-2.350882	 35.473990	 5.254307
